<svg width="595" height="65" viewBox="0 0 595 65" fill="none" xmlns="http://www.w3.org/2000/svg">
<path d="M147.679 36.0515V62.5C147.679 62.5 147.679 62.5 174.136 62.0859C200.593 61.6718 200.084 8.99211 174.136 8.99609C148.188 9.00008 146.152 8.99609 146.152 8.99609" stroke="white" stroke-width="3"/>
<circle cx="96" cy="34" r="27.5" stroke="white" stroke-width="3"/>
<circle cx="502" cy="33" r="27.5" stroke="white" stroke-width="3"/>
<path d="M214 10H250.5" stroke="white" stroke-width="3"/>
<path d="M214 10H250.5" stroke="white" stroke-width="3"/>
<path d="M214.5 35H251" stroke="white" stroke-width="3"/>
<path d="M215 60H251.5" stroke="white" stroke-width="3"/>
<path d="M274.719 12.2209L273.293 11.7564L274.719 12.2209C275.877 8.66534 278.665 5.87747 282.221 4.71938L281.756 3.29313L282.221 4.71938C295.4 0.426875 309.6 0.426874 322.779 4.71938L323.244 3.29313L322.779 4.71938C326.335 5.87746 329.122 8.6653 330.281 12.2209C334.573 25.3996 334.573 39.6004 330.281 52.7792C329.122 56.3349 326.335 59.1225 322.779 60.2807C309.6 64.5731 295.4 64.5731 282.221 60.2807C278.665 59.1225 275.877 56.3348 274.719 52.7792L273.293 53.2438L274.719 52.7792C270.427 39.6004 270.427 25.3996 274.719 12.2209Z" stroke="white" stroke-width="3"/>
<path d="M320.258 46.4992L320.258 46.499C320.653 45.2121 320.586 43.7449 319.895 42.4075L306.222 15.9297C305.358 14.2577 303.897 13.5 302.5 13.5C301.103 13.5 299.642 14.2577 298.778 15.9297C298.778 15.9297 298.778 15.9297 298.778 15.9297L285.105 42.4075C284.414 43.7449 284.347 45.2121 284.742 46.4991L320.258 46.4992ZM320.258 46.4992C319.999 47.3429 319.569 47.8071 319.065 48.0853C318.521 48.3861 317.762 48.5387 316.779 48.4916C314.792 48.3964 312.357 47.5064 310.291 46.3683C305.436 43.695 299.564 43.6951 294.709 46.3683L295.433 47.6823M320.258 46.4992L295.433 47.6823M295.433 47.6823L294.709 46.3683C292.643 47.5064 290.207 48.3964 288.22 48.4916M295.433 47.6823L288.22 48.4916M288.22 48.4916C287.238 48.5387 286.479 48.3861 285.935 48.0853M288.22 48.4916L285.935 48.0853M285.935 48.0853C285.431 47.8071 285.001 47.3429 284.742 46.4992L285.935 48.0853Z" fill="white" stroke="white" stroke-width="3"/>
<path d="M392 7H370M347 7H370M370 7V61.5" stroke="white" stroke-width="3"/>
<path d="M412 5V32.5M412 60V32.5M412 32.5H453V5V60" stroke="white" stroke-width="3"/>
<path d="M593.5 59.5V4M552 4V59.5" stroke="white" stroke-width="3"/>
<path d="M552.5 5.5L593 58" stroke="white" stroke-width="3"/>
<path fill-rule="evenodd" clip-rule="evenodd" d="M42.8627 55C38.8502 57.5337 34.0963 59 29 59C14.6406 59 3 47.3594 3 33C3 18.6406 14.6406 7 29 7C34.7337 7 40.034 8.856 44.3327 12H49.0001C43.7969 7.04304 36.7538 4 29 4C12.9837 4 0 16.9837 0 33C0 49.0163 12.9837 62 29 62C36.2179 62 42.8199 59.3631 47.8952 55H42.8627Z" fill="white"/>
</svg>
